<svg xmlns="http://www.w3.org/2000/svg"><path fill="white" d="m 35.54,40.97 c -1.71,0 -5.68,-0.69 -5.68,-7.12 l 0,-9.4 3.38,0 0,8.92 c 0,3.17 1.06,4.72 3.24,4.72 1.86,0 3.06,-1.31 3.52,-2.43 0.15,-0.4 0.24,-0.88 0.24,-1.36 l 0,-9.85 3.38,0 0,11.63 c 0,1.79 0.04,3.14 0.13,4.26 l 0.02,0.27 -3.06,0 -0.13,-2.12 c -0.77,1.03 -2.34,2.48 -5.04,2.48 l 0,0 z m -20.07,-0.36 0,-22.32 12.34,0 0,2.9 -8.99,0 0,6.36 8.5,0 0,2.85 -8.5,0 0,7.33 9.47,0 0,2.88 -12.82,0 z m 43.63,0.36 c -3.33,0 -5.07,-2.39 -5.07,-4.75 0,-3.89 3.35,-6.06 9.44,-6.08 l 0,-0.07 c 0,-2.04 -0.94,-3.16 -2.78,-3.32 l -3.25,0 0,-2.67 3.55,0 0,0.03 c 4.81,0.18 5.82,3.7 5.82,6.65 l 0,5.85 c 0,1.55 0.09,2.76 0.26,3.69 l 0.06,0.31 -3.15,0 -0.19,-1.67 c -1.12,1.28 -2.83,2.03 -4.69,2.03 z m 4.23,-8.35 c -3.93,0 -5.92,1.11 -5.92,3.27 0,1.82 1.25,2.46 2.43,2.46 2,0 3.16,-1.32 3.55,-2.44 0.09,-0.29 0.14,-0.58 0.14,-0.82 l 0,-2.47 c -0.06,0 -0.13,0 -0.2,0 l 0,0 z m 13.28,-15.48 3.38,0 0,23.47 -3.38,0 0,-23.47 z m -6.64,7.31 3.38,0 0,16.16 -3.38,0 0,-16.16 z m -23.03,16.16 0,-11.02 c 0,-2.03 -0.04,-3.53 -0.13,-4.86 l -0.02,-0.28 3.04,0 0.07,2.41 c 0.8,-1.54 2.19,-2.57 3.77,-2.74 l 0,-0.02 0.26,-0.02 1.65,0 0,2.67 -1.59,0 c -1.82,0 -3.19,1.31 -3.58,3.42 -0.06,0.37 -0.12,0.82 -0.12,1.28 l 0,9.16 -3.35,0 z M 71.6,22.32 c -1.13,0 -1.98,-0.87 -1.98,-2.01 0,-1.16 0.88,-2.04 2.04,-2.04 1.17,0 2.02,0.85 2.02,2.04 0.02,0.53 -0.17,1.03 -0.53,1.4 -0.38,0.39 -0.93,0.61 -1.55,0.61 z M 11.94,15.6 C 11.3,16.1 3.58,21.87 0.38,19.18 -0.38,18.38 0.07,16.72 1.16,15.57 L 1.34,15.4 C 1.78,14.96 5.88,12.65 7.53,11.61 11.41,9.18 15.42,5.42 23.33,1.64 29,-1.07 37.91,-1.13 42.92,7 34.17,-2.82 15.23,13.03 11.94,15.6 z M 87.31,0.58 C 86.8,0.6 86.29,0.61 85.77,0.62 86.31,1.14 86.82,1.13 87.31,0.58 M 86.54,3.3 C 87.77,3.2 88.74,3.17 89.1,3.22 87.81,2.88 87.22,3.04 86.54,3.3 m -1.9,0.56 c 0.88,-0.15 1.41,-0.39 1.9,-0.56 -1.42,0.1 -3.19,0.28 -4.72,0.48 1.13,0.15 2.2,0.39 2.82,0.08 m 10.8,-2.7 c -1.03,0.5 -1.93,-0.2 -3.14,0.11 0.5,0.55 1.08,0.2 0.5,-0.04 0.12,0.06 4.39,0.68 2.64,-0.07 M 78.3,4.47 C 78.49,4.28 79.99,4.01 81.82,3.78 80.56,3.61 79.21,3.54 78.3,4.47 M 92.48,1.69 90.52,1.83 c 0.09,0.04 0.19,0.07 0.29,0.11 -0.23,-0.03 0.16,0.03 0.61,0.09 0.24,0.02 0.46,0.03 0.63,0.07 0.09,0.02 0.19,0.03 0.22,0.06 0.02,0.02 0.04,0.03 0.06,0.04 l 0.01,0.02 0.01,0.02 c 0,0.02 0.02,-0.05 0.02,-0.08 l 0.01,-0.01 c -0.01,0.03 -0.02,0.05 -0.03,0.1 -0.01,0.02 0,0.01 -0.01,0.02 0,0 -0.41,0.01 -0.82,-0.03 C 91.13,2.18 90.67,2.1 90.15,2.03 89.63,1.99 89.06,1.95 88.46,1.98 c -0.6,0.03 -1.22,0.1 -1.82,0.23 -1.17,0.31 -2.09,0.19 -3.32,0.34 -0.06,0.01 -0.5,0.06 -0.67,0.09 -0.31,0.05 -1.07,0.31 -1.25,0.32 0.04,0.27 -0.46,0.2 -0.69,0.14 -0.01,0.08 0,0.16 -0.04,0.23 -0.03,0 -0.32,0.1 -0.39,0.13 -0.29,0.12 -0.65,-0.03 -0.97,-0.09 0,0 -0.01,-0.19 -0.02,-0.22 -1.54,0.6 -3.49,1.27 -3.77,-0.03 0.56,2.6 -11.02,0.75 -11.46,3.98 -0.01,0.07 4.33,-1.17 5.08,-1.37 -5.88,2.44 -9.82,6.22 -15.78,8.54 -3.56,1.46 -8.64,3.09 -12.04,0.12 -1.84,-1.61 -3.25,-4.6 -4.56,-6.27 -0.87,-1.1 -1.9,-1.86 -3.04,-2.32 0.53,-0.05 1.05,-0.07 1.55,-0.07 3.11,0.07 5.85,1.79 6.66,2.55 5.99,5.17 12.78,-1.31 18.51,-3.5 0.43,0.01 1.46,-0.06 1.43,-0.09 0.39,-0.22 0.82,-0.43 1.25,-0.63 -0.33,0.08 -0.68,0.11 -1.02,0.13 0.62,-0.2 1.18,-0.36 1.67,-0.45 1.37,-0.63 5.01,-1.68 5.26,-1.71 0.42,-0.08 0.84,-0.15 1.26,-0.19 -0.05,0.04 -0.11,0.06 -0.16,0.08 -0.02,0.03 -0.45,0.17 -0.56,0.2 -0.1,0.06 -0.21,0.1 -0.31,0.14 0.45,-0.07 0.78,-0.13 1.28,0.27 -1,-0.82 7.87,-0.99 9.13,-1.01 0.74,0 1.26,0.57 1.57,0.51 0.34,-0.07 1.6,-0.13 1.96,-0.14 0,0 0.45,-0.17 0.48,-0.2 0.28,-0.2 0.37,-0.03 0.7,-0.15 0.22,-0.05 0.27,-0.16 0.47,-0.1 0.06,0 0.14,-0.12 0.17,-0.12 0.24,0 0.2,0.22 0.26,-0.08 0.01,-0.07 0.33,0.32 0.43,0.28 0.13,-0.09 0.33,-0.01 0.52,-0.05 0.03,-0.02 0.06,-0.04 0.07,-0.06 0.07,-0.05 0.15,0 0.24,-0.02 0.29,-0.03 0.51,-0.22 0.76,-0.25 0.16,-0.03 0.72,0 1.27,0.07 0.56,0.07 1.09,0.18 1.19,0.29 l 0,0 c -0.03,0.01 -0.06,0.01 -0.07,0.01 0,0 -0.47,-0.08 -0.59,-0.09 -0.16,0 -0.33,-0.04 -0.48,-0.04 -0.25,0.02 -0.31,0.07 0.07,0.08 0.38,0.02 0.67,0.06 0.39,0.06 -0.27,-0.01 -0.64,0 -1,0.01 -0.73,0.01 1.81,0.11 1.96,0.12 0.04,0.01 0.08,0.02 0.12,0.04 0.45,0 0.89,0.02 1.28,0.02 0.21,0 0.83,-0.06 1.04,-0.02 M 78.01,2.16 c -0.07,-0.03 0.28,0.04 0.91,0.21 0.02,-0.08 0.03,-0.3 0.03,-0.33 -0.49,-0.08 -1.01,-0.09 -1.62,0.09 0.52,0.52 0.96,0.19 0.68,0.03 z m 4.3,36.7 c 0,-1.24 0.85,-2.14 2.02,-2.14 1.2,0 2.03,0.87 2.03,2.14 0,1.22 -0.8,2.14 -2.05,2.14 -1.18,0 -2,-0.92 -2,-2.14 z m 13.48,-0.65 c -0.4,0.09 -0.85,0.14 -1.37,0.14 -2.24,0 -3.98,-1.55 -3.98,-4.25 -0.02,-2.4 1.47,-4.27 3.98,-4.27 0.56,0 1.03,0.05 1.42,0.14 0.35,-0.83 0.81,-1.59 1.36,-2.25 -0.75,-0.28 -1.83,-0.49 -2.89,-0.49 -4.56,0 -7.23,3.06 -7.23,7.01 0,4.08 2.64,6.73 6.7,6.73 1.38,0 2.57,-0.25 3.32,-0.53 -0.53,-0.66 -0.97,-1.41 -1.31,-2.23 l 0,0 z m 14.41,-4.22 c 0,4.85 -3.36,7.01 -6.66,7.01 -3.66,0 -6.51,-2.54 -6.51,-6.79 0,-4.33 2.8,-6.98 6.72,-6.98 3.87,0 6.45,2.76 6.45,6.76 l 0,0 z m -9.78,0.14 c 0,2.54 1.25,4.46 3.23,4.46 1.86,0 3.17,-1.84 3.17,-4.51 0,-2.06 -0.91,-4.44 -3.15,-4.44 -2.32,0 -3.25,2.3 -3.25,4.49 l 0,0 z m 11.43,-2.68 c 0,-1.51 -0.05,-2.79 -0.11,-3.92 l 2.81,0 0.16,1.94 0.08,0 c 0.61,-1.02 1.78,-2.24 4,-2.24 1.7,0 3.04,0.97 3.6,2.44 l 0.05,0 c 0.45,-0.73 0.99,-1.28 1.57,-1.65 0.75,-0.52 1.58,-0.79 2.67,-0.79 2.13,0 4.32,1.49 4.32,5.71 l 0,7.76 -3.2,0 0,-7.28 c 0,-2.19 -0.75,-3.48 -2.32,-3.48 -1.12,0 -1.95,0.81 -2.29,1.76 -0.11,0.29 -0.16,0.72 -0.16,1.1 l 0,7.9 -3.2,0 0,-7.63 c 0,-1.84 -0.72,-3.13 -2.24,-3.13 -1.23,0 -2.06,0.97 -2.38,1.86 -0.1,0.35 -0.16,0.73 -0.16,1.11 l 0,7.79 -3.2,0 0,-9.25 z m 0,0"></path></svg>